<mxfile host="app.diagrams.net" modified="2020-11-01T02:02:51.926Z" agent="5.0 (Windows NT 10.0; Win64; x64) AppleWebKit/537.36 (KHTML, like Gecko) Chrome/86.0.4240.111 Safari/537.36" etag="EDIeJZ5M3JaUWMeXjOh-" version="13.8.3" type="github">
  <diagram id="lHumU1Yx4waUy4x4OvuH" name="Page-1">
    <mxGraphModel dx="1287" dy="1921" grid="1" gridSize="10" guides="1" tooltips="1" connect="1" arrows="1" fold="1" page="1" pageScale="1" pageWidth="827" pageHeight="1169" math="0" shadow="0">
      <root>
        <mxCell id="0" />
        <mxCell id="1" parent="0" />
        <mxCell id="2WWlvlnC3w6bAqd3Cvbb-55" value="" style="rounded=1;whiteSpace=wrap;html=1;shadow=0;sketch=0;strokeWidth=1;fillColor=#f9f7ed;strokeColor=#36393d;" vertex="1" parent="1">
          <mxGeometry x="50" y="-72.5" width="160" height="82.5" as="geometry" />
        </mxCell>
        <mxCell id="2WWlvlnC3w6bAqd3Cvbb-56" value="&lt;font style=&quot;font-size: 16px&quot;&gt;A 线程&amp;nbsp;&amp;nbsp;&lt;/font&gt;" style="rounded=0;whiteSpace=wrap;html=1;shadow=0;sketch=0;strokeWidth=1;fillColor=#cce5ff;strokeColor=#36393d;" vertex="1" parent="1">
          <mxGeometry x="69.66" y="-60" width="120" height="60" as="geometry" />
        </mxCell>
        <mxCell id="2WWlvlnC3w6bAqd3Cvbb-57" value="" style="rounded=1;whiteSpace=wrap;html=1;shadow=0;sketch=0;strokeWidth=1;fillColor=#f9f7ed;strokeColor=#36393d;" vertex="1" parent="1">
          <mxGeometry x="123.56321839080458" y="226" width="335.0574712643678" height="84" as="geometry" />
        </mxCell>
        <mxCell id="2WWlvlnC3w6bAqd3Cvbb-58" value="" style="rounded=1;whiteSpace=wrap;html=1;shadow=0;sketch=0;strokeWidth=1;fillColor=#f9f7ed;strokeColor=#36393d;" vertex="1" parent="1">
          <mxGeometry x="330.6896551724138" y="70" width="219.31034482758616" height="78" as="geometry" />
        </mxCell>
        <mxCell id="2WWlvlnC3w6bAqd3Cvbb-59" value="" style="rounded=1;whiteSpace=wrap;html=1;shadow=0;sketch=0;strokeWidth=1;fillColor=#f9f7ed;strokeColor=#36393d;" vertex="1" parent="1">
          <mxGeometry x="20" y="70" width="219.31034482758616" height="78" as="geometry" />
        </mxCell>
        <mxCell id="2WWlvlnC3w6bAqd3Cvbb-60" value="&lt;span style=&quot;font-size: 16px;&quot;&gt;1. 从内存读取数据&lt;/span&gt;&lt;br style=&quot;font-size: 16px;&quot;&gt;&lt;span style=&quot;font-size: 16px;&quot;&gt;到 Cache&lt;/span&gt;" style="edgeStyle=orthogonalEdgeStyle;rounded=0;orthogonalLoop=1;jettySize=auto;html=1;exitX=0.5;exitY=0;exitDx=0;exitDy=0;entryX=0.5;entryY=1;entryDx=0;entryDy=0;fontSize=16;" edge="1" parent="1" source="2WWlvlnC3w6bAqd3Cvbb-65" target="2WWlvlnC3w6bAqd3Cvbb-59">
          <mxGeometry as="geometry">
            <mxPoint x="44.36781609195402" y="142" as="targetPoint" />
            <mxPoint x="29" y="-26" as="offset" />
          </mxGeometry>
        </mxCell>
        <mxCell id="2WWlvlnC3w6bAqd3Cvbb-61" value="" style="rounded=0;whiteSpace=wrap;html=1;strokeWidth=1;" vertex="1" parent="1">
          <mxGeometry x="147.9310344827586" y="244" width="24.36781609195402" height="24" as="geometry" />
        </mxCell>
        <mxCell id="2WWlvlnC3w6bAqd3Cvbb-63" value="" style="rounded=0;whiteSpace=wrap;html=1;strokeWidth=1;" vertex="1" parent="1">
          <mxGeometry x="172.29885057471262" y="244" width="24.36781609195402" height="24" as="geometry" />
        </mxCell>
        <mxCell id="2WWlvlnC3w6bAqd3Cvbb-64" value="" style="rounded=0;whiteSpace=wrap;html=1;strokeWidth=1;" vertex="1" parent="1">
          <mxGeometry x="196.66666666666663" y="244" width="24.36781609195402" height="24" as="geometry" />
        </mxCell>
        <mxCell id="2WWlvlnC3w6bAqd3Cvbb-65" value="A" style="rounded=0;whiteSpace=wrap;html=1;strokeWidth=4;fillColor=#cce5ff;strokeColor=#36393d;fontSize=16;" vertex="1" parent="1">
          <mxGeometry x="221.03448275862064" y="244" width="24.36781609195402" height="24" as="geometry" />
        </mxCell>
        <mxCell id="2WWlvlnC3w6bAqd3Cvbb-66" value="B" style="rounded=0;whiteSpace=wrap;html=1;strokeWidth=4;fillColor=#ffff88;strokeColor=#36393d;fontSize=16;" vertex="1" parent="1">
          <mxGeometry x="245.40229885057468" y="244" width="24.36781609195402" height="24" as="geometry" />
        </mxCell>
        <mxCell id="2WWlvlnC3w6bAqd3Cvbb-67" value="" style="rounded=0;whiteSpace=wrap;html=1;strokeWidth=4;" vertex="1" parent="1">
          <mxGeometry x="294.13793103448273" y="244" width="24.36781609195402" height="24" as="geometry" />
        </mxCell>
        <mxCell id="2WWlvlnC3w6bAqd3Cvbb-68" value="" style="rounded=0;whiteSpace=wrap;html=1;strokeWidth=4;" vertex="1" parent="1">
          <mxGeometry x="269.7701149425287" y="244" width="24.36781609195402" height="24" as="geometry" />
        </mxCell>
        <mxCell id="2WWlvlnC3w6bAqd3Cvbb-69" value="" style="rounded=0;whiteSpace=wrap;html=1;strokeWidth=4;sketch=0;shadow=0;" vertex="1" parent="1">
          <mxGeometry x="318.50574712643675" y="244" width="24.36781609195402" height="24" as="geometry" />
        </mxCell>
        <mxCell id="2WWlvlnC3w6bAqd3Cvbb-70" value="" style="rounded=0;whiteSpace=wrap;html=1;strokeWidth=4;" vertex="1" parent="1">
          <mxGeometry x="342.87356321839076" y="244" width="24.36781609195402" height="24" as="geometry" />
        </mxCell>
        <mxCell id="2WWlvlnC3w6bAqd3Cvbb-71" value="" style="rounded=0;whiteSpace=wrap;html=1;strokeWidth=4;" vertex="1" parent="1">
          <mxGeometry x="367.24137931034477" y="244" width="24.36781609195402" height="24" as="geometry" />
        </mxCell>
        <mxCell id="2WWlvlnC3w6bAqd3Cvbb-72" value="" style="rounded=0;whiteSpace=wrap;html=1;" vertex="1" parent="1">
          <mxGeometry x="147.9310344827586" y="268" width="24.36781609195402" height="24" as="geometry" />
        </mxCell>
        <mxCell id="2WWlvlnC3w6bAqd3Cvbb-73" value="" style="rounded=0;whiteSpace=wrap;html=1;" vertex="1" parent="1">
          <mxGeometry x="172.29885057471262" y="268" width="24.36781609195402" height="24" as="geometry" />
        </mxCell>
        <mxCell id="2WWlvlnC3w6bAqd3Cvbb-74" value="" style="rounded=0;whiteSpace=wrap;html=1;" vertex="1" parent="1">
          <mxGeometry x="196.66666666666663" y="268" width="24.36781609195402" height="24" as="geometry" />
        </mxCell>
        <mxCell id="2WWlvlnC3w6bAqd3Cvbb-75" value="" style="rounded=0;whiteSpace=wrap;html=1;" vertex="1" parent="1">
          <mxGeometry x="221.03448275862064" y="268" width="24.36781609195402" height="24" as="geometry" />
        </mxCell>
        <mxCell id="2WWlvlnC3w6bAqd3Cvbb-76" value="" style="rounded=0;whiteSpace=wrap;html=1;" vertex="1" parent="1">
          <mxGeometry x="245.40229885057468" y="268" width="24.36781609195402" height="24" as="geometry" />
        </mxCell>
        <mxCell id="2WWlvlnC3w6bAqd3Cvbb-77" value="" style="rounded=0;whiteSpace=wrap;html=1;" vertex="1" parent="1">
          <mxGeometry x="294.13793103448273" y="268" width="24.36781609195402" height="24" as="geometry" />
        </mxCell>
        <mxCell id="2WWlvlnC3w6bAqd3Cvbb-78" value="" style="rounded=0;whiteSpace=wrap;html=1;" vertex="1" parent="1">
          <mxGeometry x="269.7701149425287" y="268" width="24.36781609195402" height="24" as="geometry" />
        </mxCell>
        <mxCell id="2WWlvlnC3w6bAqd3Cvbb-79" value="" style="rounded=0;whiteSpace=wrap;html=1;" vertex="1" parent="1">
          <mxGeometry x="318.50574712643675" y="268" width="24.36781609195402" height="24" as="geometry" />
        </mxCell>
        <mxCell id="2WWlvlnC3w6bAqd3Cvbb-80" value="" style="rounded=0;whiteSpace=wrap;html=1;" vertex="1" parent="1">
          <mxGeometry x="342.87356321839076" y="268" width="24.36781609195402" height="24" as="geometry" />
        </mxCell>
        <mxCell id="2WWlvlnC3w6bAqd3Cvbb-81" value="" style="rounded=0;whiteSpace=wrap;html=1;" vertex="1" parent="1">
          <mxGeometry x="367.24137931034477" y="268" width="24.36781609195402" height="24" as="geometry" />
        </mxCell>
        <mxCell id="2WWlvlnC3w6bAqd3Cvbb-82" value="A" style="rounded=0;whiteSpace=wrap;html=1;fillColor=#cce5ff;strokeColor=#36393d;fontSize=16;" vertex="1" parent="1">
          <mxGeometry x="32.183908045977006" y="100" width="24.36781609195402" height="24" as="geometry" />
        </mxCell>
        <mxCell id="2WWlvlnC3w6bAqd3Cvbb-83" value="B" style="rounded=0;whiteSpace=wrap;html=1;fillColor=#ffff88;strokeColor=#36393d;fontSize=16;" vertex="1" parent="1">
          <mxGeometry x="56.55172413793103" y="100" width="24.36781609195402" height="24" as="geometry" />
        </mxCell>
        <mxCell id="2WWlvlnC3w6bAqd3Cvbb-84" value="" style="rounded=0;whiteSpace=wrap;html=1;" vertex="1" parent="1">
          <mxGeometry x="80.91954022988504" y="100" width="24.36781609195402" height="24" as="geometry" />
        </mxCell>
        <mxCell id="2WWlvlnC3w6bAqd3Cvbb-85" value="" style="rounded=0;whiteSpace=wrap;html=1;" vertex="1" parent="1">
          <mxGeometry x="105.28735632183908" y="100" width="24.36781609195402" height="24" as="geometry" />
        </mxCell>
        <mxCell id="2WWlvlnC3w6bAqd3Cvbb-86" value="" style="rounded=0;whiteSpace=wrap;html=1;" vertex="1" parent="1">
          <mxGeometry x="129.65517241379308" y="100" width="24.36781609195402" height="24" as="geometry" />
        </mxCell>
        <mxCell id="2WWlvlnC3w6bAqd3Cvbb-87" value="" style="rounded=0;whiteSpace=wrap;html=1;" vertex="1" parent="1">
          <mxGeometry x="178.39080459770113" y="100" width="24.36781609195402" height="24" as="geometry" />
        </mxCell>
        <mxCell id="2WWlvlnC3w6bAqd3Cvbb-88" value="" style="rounded=0;whiteSpace=wrap;html=1;" vertex="1" parent="1">
          <mxGeometry x="154.02298850574712" y="100" width="24.36781609195402" height="24" as="geometry" />
        </mxCell>
        <mxCell id="2WWlvlnC3w6bAqd3Cvbb-89" value="" style="rounded=0;whiteSpace=wrap;html=1;" vertex="1" parent="1">
          <mxGeometry x="202.75862068965515" y="100" width="24.36781609195402" height="24" as="geometry" />
        </mxCell>
        <mxCell id="2WWlvlnC3w6bAqd3Cvbb-90" value="" style="rounded=0;whiteSpace=wrap;html=1;fontSize=16;" vertex="1" parent="1">
          <mxGeometry x="342.87356321839076" y="100" width="24.36781609195402" height="24" as="geometry" />
        </mxCell>
        <mxCell id="2WWlvlnC3w6bAqd3Cvbb-91" value="" style="rounded=0;whiteSpace=wrap;html=1;fontSize=16;" vertex="1" parent="1">
          <mxGeometry x="367.24137931034477" y="100" width="24.36781609195402" height="24" as="geometry" />
        </mxCell>
        <mxCell id="2WWlvlnC3w6bAqd3Cvbb-92" value="" style="rounded=0;whiteSpace=wrap;html=1;" vertex="1" parent="1">
          <mxGeometry x="391.60919540229884" y="100" width="24.36781609195402" height="24" as="geometry" />
        </mxCell>
        <mxCell id="2WWlvlnC3w6bAqd3Cvbb-93" value="" style="rounded=0;whiteSpace=wrap;html=1;" vertex="1" parent="1">
          <mxGeometry x="415.9770114942528" y="100" width="24.36781609195402" height="24" as="geometry" />
        </mxCell>
        <mxCell id="2WWlvlnC3w6bAqd3Cvbb-94" value="" style="rounded=0;whiteSpace=wrap;html=1;" vertex="1" parent="1">
          <mxGeometry x="440.34482758620686" y="100" width="24.36781609195402" height="24" as="geometry" />
        </mxCell>
        <mxCell id="2WWlvlnC3w6bAqd3Cvbb-95" value="" style="rounded=0;whiteSpace=wrap;html=1;" vertex="1" parent="1">
          <mxGeometry x="489.08045977011494" y="100" width="24.36781609195402" height="24" as="geometry" />
        </mxCell>
        <mxCell id="2WWlvlnC3w6bAqd3Cvbb-96" value="" style="rounded=0;whiteSpace=wrap;html=1;" vertex="1" parent="1">
          <mxGeometry x="464.7126436781609" y="100" width="24.36781609195402" height="24" as="geometry" />
        </mxCell>
        <mxCell id="2WWlvlnC3w6bAqd3Cvbb-97" value="" style="rounded=0;whiteSpace=wrap;html=1;" vertex="1" parent="1">
          <mxGeometry x="513.4482758620688" y="100" width="24.36781609195402" height="24" as="geometry" />
        </mxCell>
        <mxCell id="2WWlvlnC3w6bAqd3Cvbb-98" value="" style="rounded=0;whiteSpace=wrap;html=1;strokeWidth=4;" vertex="1" parent="1">
          <mxGeometry x="391.60919540229884" y="244" width="24.36781609195402" height="24" as="geometry" />
        </mxCell>
        <mxCell id="2WWlvlnC3w6bAqd3Cvbb-99" value="" style="rounded=0;whiteSpace=wrap;html=1;" vertex="1" parent="1">
          <mxGeometry x="391.60919540229884" y="268" width="24.36781609195402" height="24" as="geometry" />
        </mxCell>
        <mxCell id="2WWlvlnC3w6bAqd3Cvbb-100" value="" style="rounded=0;whiteSpace=wrap;html=1;" vertex="1" parent="1">
          <mxGeometry x="415.9770114942528" y="244" width="24.36781609195402" height="24" as="geometry" />
        </mxCell>
        <mxCell id="2WWlvlnC3w6bAqd3Cvbb-101" value="" style="rounded=0;whiteSpace=wrap;html=1;" vertex="1" parent="1">
          <mxGeometry x="415.9770114942528" y="268" width="24.36781609195402" height="24" as="geometry" />
        </mxCell>
        <mxCell id="2WWlvlnC3w6bAqd3Cvbb-102" value="CPU 核心 1" style="text;html=1;align=center;verticalAlign=middle;resizable=0;points=[];autosize=1;fontSize=18;fontStyle=1" vertex="1" parent="1">
          <mxGeometry x="74.66" y="-105" width="110" height="30" as="geometry" />
        </mxCell>
        <mxCell id="2WWlvlnC3w6bAqd3Cvbb-103" value="" style="rounded=1;whiteSpace=wrap;html=1;shadow=0;sketch=0;strokeWidth=1;fillColor=#f9f7ed;strokeColor=#36393d;" vertex="1" parent="1">
          <mxGeometry x="360.34000000000003" y="-72.5" width="160" height="82.5" as="geometry" />
        </mxCell>
        <mxCell id="2WWlvlnC3w6bAqd3Cvbb-105" value="&lt;font style=&quot;font-size: 16px&quot;&gt;B 线程&amp;nbsp;&amp;nbsp;&lt;/font&gt;" style="rounded=0;whiteSpace=wrap;html=1;shadow=0;sketch=0;strokeWidth=1;fillColor=#ffff88;strokeColor=#36393d;" vertex="1" parent="1">
          <mxGeometry x="380" y="-60" width="122.18" height="60" as="geometry" />
        </mxCell>
        <mxCell id="2WWlvlnC3w6bAqd3Cvbb-106" value="CPU 核心 2" style="text;html=1;align=center;verticalAlign=middle;resizable=0;points=[];autosize=1;fontSize=18;fontStyle=1" vertex="1" parent="1">
          <mxGeometry x="385.00000000000006" y="-105" width="110" height="30" as="geometry" />
        </mxCell>
        <mxCell id="2WWlvlnC3w6bAqd3Cvbb-107" value="Cache Line" style="text;html=1;align=center;verticalAlign=middle;resizable=0;points=[];autosize=1;fontSize=18;fontStyle=1" vertex="1" parent="1">
          <mxGeometry x="383" y="122" width="110" height="30" as="geometry" />
        </mxCell>
        <mxCell id="2WWlvlnC3w6bAqd3Cvbb-108" value="Cache Line" style="text;html=1;align=center;verticalAlign=middle;resizable=0;points=[];autosize=1;fontSize=18;fontStyle=1" vertex="1" parent="1">
          <mxGeometry x="74.66000000000003" y="121" width="110" height="30" as="geometry" />
        </mxCell>
        <mxCell id="2WWlvlnC3w6bAqd3Cvbb-109" value="2. 从 Cache 读取数据" style="edgeStyle=orthogonalEdgeStyle;rounded=0;orthogonalLoop=1;jettySize=auto;html=1;entryX=0.5;entryY=0;entryDx=0;entryDy=0;fontSize=16;fillColor=#dae8fc;strokeColor=#6c8ebf;gradientColor=#7ea6e0;strokeWidth=2;exitX=0.5;exitY=1;exitDx=0;exitDy=0;" edge="1" parent="1" source="2WWlvlnC3w6bAqd3Cvbb-56" target="2WWlvlnC3w6bAqd3Cvbb-82">
          <mxGeometry x="-0.6762" relative="1" as="geometry">
            <mxPoint as="offset" />
          </mxGeometry>
        </mxCell>
        <mxCell id="2WWlvlnC3w6bAqd3Cvbb-110" value="内存" style="text;html=1;align=center;verticalAlign=middle;resizable=0;points=[];autosize=1;fontSize=18;fontStyle=1" vertex="1" parent="1">
          <mxGeometry x="269.77000000000004" y="310" width="50" height="30" as="geometry" />
        </mxCell>
        <mxCell id="2WWlvlnC3w6bAqd3Cvbb-111" value="Cache" style="text;html=1;align=center;verticalAlign=middle;resizable=0;points=[];autosize=1;fontSize=18;fontStyle=1" vertex="1" parent="1">
          <mxGeometry x="-60" y="97" width="70" height="30" as="geometry" />
        </mxCell>
        <mxCell id="2WWlvlnC3w6bAqd3Cvbb-112" value="Cache" style="text;html=1;align=center;verticalAlign=middle;resizable=0;points=[];autosize=1;fontSize=18;fontStyle=1" vertex="1" parent="1">
          <mxGeometry x="560" y="94" width="70" height="30" as="geometry" />
        </mxCell>
        <mxCell id="2WWlvlnC3w6bAqd3Cvbb-114" value="独占状态" style="text;html=1;align=center;verticalAlign=middle;resizable=0;points=[];autosize=1;fontSize=16;" vertex="1" parent="1">
          <mxGeometry x="89.66" y="75" width="80" height="20" as="geometry" />
        </mxCell>
      </root>
    </mxGraphModel>
  </diagram>
</mxfile>
